<svg width="16" height="16" viewBox="0 0 16 16" fill="none" xmlns="http://www.w3.org/2000/svg">
<path d="M8.00004 1.33344C5.42004 1.33344 3.33337 3.4201 3.33337 6.0001C3.33337 9.5001 8.00004 14.6668 8.00004 14.6668C8.00004 14.6668 12.6667 9.5001 12.6667 6.0001C12.6667 3.4201 10.58 1.33344 8.00004 1.33344ZM4.66671 6.0001C4.66671 4.1601 6.16004 2.66677 8.00004 2.66677C9.84004 2.66677 11.3334 4.1601 11.3334 6.0001C11.3334 7.9201 9.41337 10.7934 8.00004 12.5868C6.61337 10.8068 4.66671 7.9001 4.66671 6.0001Z" fill="#828282"/>
<path d="M8.00004 7.66677C8.92052 7.66677 9.66671 6.92058 9.66671 6.0001C9.66671 5.07963 8.92052 4.33344 8.00004 4.33344C7.07957 4.33344 6.33337 5.07963 6.33337 6.0001C6.33337 6.92058 7.07957 7.66677 8.00004 7.66677Z" fill="#828282"/>
</svg>
